<?xml version="1.0" encoding="utf-8"?>
<!-- Generator: Adobe Illustrator 22.0.0, SVG Export Plug-In . SVG Version: 6.00 Build 0)  -->
<svg version="1.1" id="Слой_1" xmlns="http://www.w3.org/2000/svg" xmlns:xlink="http://www.w3.org/1999/xlink" x="0px" y="0px"
	 width="17.54932px" height="17.54932px" viewBox="0 0 17.54932 17.54932" style="enable-background:new 0 0 17.54932 17.54932;"
	 xml:space="preserve">
<path d="M6.22864,12.57292c-0.02478-0.00706-0.05015-0.01104-0.07568-0.01241c0.37546-0.39462,0.60669-0.92771,0.60669-1.51411
	V9.24311c0-0.01649-0.00158-0.03256-0.0038-0.0484c0.00226-0.03256,0.0038-0.06533,0.0038-0.09844V7.95536
	c0-0.18931-0.15345-0.34276-0.34276-0.34276h-2.299c-0.96813,0-1.75572,0.78763-1.75572,1.75572v1.67808
	c0,0.58639,0.23119,1.11949,0.60669,1.51411c-0.0255,0.00137-0.05087,0.00535-0.07561,0.01241
	C1.27346,12.71959,0,14.08484,0,15.74215v1.46441c0,0.18931,0.15345,0.34276,0.34276,0.34276h8.43625
	c0.18931,0,0.34276-0.15345,0.34276-0.34276v-1.46441C9.12177,14.08487,7.84838,12.71962,6.22864,12.57292z M3.04769,10.51046
	h2.29773c0.26639,0,0.51575-0.0741,0.72871-0.20271v0.73861c0,0.83438-0.67884,1.51322-1.51322,1.51322
	s-1.51322-0.67884-1.51322-1.51322V10.51046z M5.30692,13.24514L4.5609,13.99119l-0.74602-0.74605H5.30692z M3.04769,9.36828
	c0-0.5901,0.4801-1.0702,1.0702-1.0702h1.95623v0.79815c0,0.40182-0.32689,0.72871-0.72871,0.72871H3.04769V9.80297V9.36828z
	 M8.43625,16.8638H0.68552v-0.68552h1.42245c0.18931,0,0.34276-0.15345,0.34276-0.34276s-0.15345-0.34276-0.34276-0.34276H0.69803
	c0.11513-1.15565,1.02163-2.08114,2.16813-2.22688l1.45238,1.45238C4.3828,14.78252,4.47,14.81865,4.5609,14.81865
	c0.0909,0,0.1781-0.03613,0.24237-0.10039l1.45238-1.45238c1.2279,0.15606,2.18064,1.20665,2.18064,2.47627v1.12165H8.43625z"/>
<path d="M14.65625,4.96036c-0.02478-0.00706-0.05018-0.01104-0.07575-0.01241c0.37546-0.39462,0.60665-0.92771,0.60665-1.51411
	V1.63051c0-0.01649-0.00158-0.03256-0.0038-0.0484c0.00226-0.03256,0.0038-0.06533,0.0038-0.09844V0.34276
	C15.18715,0.15345,15.0337,0,14.84439,0h-2.299c-0.96813,0-1.75572,0.78763-1.75572,1.75572V3.4338
	c0,0.58639,0.23119,1.11949,0.60665,1.51411c-0.02554,0.00137-0.05097,0.00535-0.07575,0.01241
	C9.70087,5.10706,8.42751,6.4723,8.42751,8.12955v1.46437c0,0.18931,0.15345,0.34276,0.34276,0.34276h2.75785
	c0.18931,0,0.34276-0.15345,0.34276-0.34276c0-0.18931-0.15345-0.34276-0.34276-0.34276H9.11303V8.12958
	c0-1.26962,0.9527-2.32021,2.1806-2.47627l1.45238,1.45238c0.06694,0.06694,0.15465,0.10039,0.24237,0.10039
	s0.17546-0.03345,0.24237-0.10039l1.45238-1.45238c1.22797,0.15609,2.18067,1.20665,2.18067,2.47627V9.2512h-2.52501
	c-0.18931,0-0.34276,0.15345-0.34276,0.34276c0,0.18931,0.15345,0.34276,0.34276,0.34276h2.86777
	c0.18931,0,0.34276-0.15345,0.34276-0.34276V8.12958C17.54932,6.47234,16.27593,5.10709,14.65625,4.96036z M11.47523,3.43384V2.8979
	h2.29773c0.26639,0,0.51575-0.07414,0.72871-0.20271V3.4338c0,0.83438-0.67884,1.51322-1.51322,1.51322
	C12.15407,4.94702,11.47523,4.26822,11.47523,3.43384z M11.47523,1.75572c0-0.5901,0.4801-1.0702,1.0702-1.0702h1.95623v0.79815
	c0,0.40182-0.32689,0.72871-0.72871,0.72871h-2.29773V2.19041L11.47523,1.75572L11.47523,1.75572z M12.98845,6.37859
	l-0.74602-0.74602h1.49203L12.98845,6.37859z"/>
<path d="M13.23088,9.83619c0.06375-0.06375,0.10043-0.15184,0.10043-0.24233c0-0.09015-0.03668-0.17858-0.10043-0.24233
	c-0.06375-0.06375-0.15219-0.10043-0.24233-0.10043c-0.09049,0-0.17858,0.03668-0.24233,0.10043
	c-0.0641,0.06375-0.10043,0.15219-0.10043,0.24233c0,0.09049,0.03633,0.17858,0.10043,0.24233
	c0.06375,0.0641,0.15184,0.10043,0.24233,0.10043C13.0787,9.93661,13.16713,9.90028,13.23088,9.83619z"/>
<path d="M1.7138,6.44389h4.30448c0.70862,0,1.32655-0.42526,1.58581-1.06256h1.31908c0.13861,0,0.26362-0.08353,0.31668-0.21159
	c0.05306-0.12805,0.02372-0.27551-0.07428-0.37354L7.73212,3.36275V1.7138C7.73212,0.76881,6.96331,0,6.01832,0H1.7138
	C0.76881,0,0,0.76881,0,1.7138v3.01629C0,5.67508,0.76881,6.44389,1.7138,6.44389z M0.68552,1.7138
	c0-0.56699,0.46129-1.02828,1.02828-1.02828h4.30448c0.56699,0,1.02828,0.46129,1.02828,1.02828v1.79092
	c0,0.0909,0.03613,0.1781,0.10039,0.24237l0.94873,0.94873H7.35405c-0.15969,0-0.29824,0.11027-0.33405,0.26591
	c-0.1079,0.46903-0.5198,0.79664-1.00172,0.79664H1.7138c-0.56699,0-1.02828-0.46129-1.02828-1.02828V1.7138z"/>
<path d="M15.83552,11.10543h-4.30448c-0.70862,0-1.32655,0.42526-1.58581,1.06256H8.62614
	c-0.13861,0-0.26362,0.08353-0.31668,0.21159s-0.02372,0.27551,0.07428,0.37354l1.43346,1.43346v1.64895
	c0,0.94499,0.76881,1.7138,1.7138,1.7138h4.30452c0.94499,0,1.7138-0.76881,1.7138-1.7138v-3.01629
	C17.54932,11.87424,16.78051,11.10543,15.83552,11.10543z M16.8638,15.83552c0,0.56699-0.46129,1.02828-1.02828,1.02828h-4.30448
	c-0.56699,0-1.02828-0.46129-1.02828-1.02828v-1.79092c0-0.0909-0.03613-0.1781-0.10039-0.24237L9.45363,12.8535h0.74163
	c0.15969,0,0.29824-0.11027,0.33405-0.26591c0.1079-0.46903,0.5198-0.79664,1.00172-0.79664h4.30448
	c0.56699,0,1.02828,0.46129,1.02828,1.02828V15.83552z"/>
<path d="M14.7392,13.41536l-0.91116,0.91116l-0.42369-0.42369c-0.13385-0.13385-0.35088-0.13385-0.48477,0
	c-0.13385,0.13385-0.13385,0.35088,0,0.48477l0.66605,0.66605c0.06694,0.06694,0.15465,0.10039,0.24237,0.10039
	s0.17546-0.03345,0.24237-0.10039l1.15352-1.15352c0.13385-0.13385,0.13385-0.35088,0-0.48477
	C15.09008,13.28151,14.87305,13.28151,14.7392,13.41536z"/>
<path d="M3.39315,2.69773c0.18931,0,0.34276-0.15345,0.34276-0.34276c0-0.14091,0.05676-0.2715,0.15986-0.36775
	c0.10293-0.09611,0.23781-0.14382,0.3794-0.13388c0.24812,0.0171,0.44812,0.2171,0.46523,0.46523
	C4.75772,2.56943,4.59326,2.79113,4.34939,2.8457C4.08244,2.90541,3.89602,3.13749,3.89602,3.41005v0.18286
	c0,0.18931,0.15345,0.34276,0.34276,0.34276s0.34276-0.15345,0.34276-0.34276V3.49317
	C5.11261,3.33475,5.46308,2.83408,5.42428,2.2714C5.38377,1.68367,4.91,1.20991,4.32227,1.16939
	c-0.33327-0.02293-0.65094,0.08949-0.8943,0.31668c-0.23997,0.22399-0.37762,0.5407-0.37762,0.86886
	C3.05039,2.54427,3.20385,2.69773,3.39315,2.69773z"/>
<path d="M4.23891,4.56179c-0.09049,0-0.17858,0.03668-0.24233,0.10043c-0.0641,0.06375-0.10043,0.15219-0.10043,0.24233
	s0.03633,0.17858,0.10043,0.24233c0.06375,0.06375,0.15184,0.10043,0.24233,0.10043c0.09015,0,0.17858-0.03668,0.24233-0.10043
	C4.545,5.08313,4.58167,4.9947,4.58167,4.90455S4.545,4.72598,4.48125,4.66222C4.41749,4.59847,4.32906,4.56179,4.23891,4.56179z"/>
<path d="M3.47901,15.49276c-0.09015,0-0.17858,0.03668-0.24233,0.10043s-0.10043,0.15219-0.10043,0.24233
	s0.03668,0.17858,0.10043,0.24233c0.06375,0.06375,0.15219,0.10043,0.24233,0.10043s0.17858-0.03667,0.24233-0.10043
	s0.10043-0.15219,0.10043-0.24233s-0.03668-0.17858-0.10043-0.24233C3.65759,15.52943,3.56916,15.49276,3.47901,15.49276z"/>
</svg>
