<?xml version="1.0" encoding="utf-8"?>
<!-- Generator: Adobe Illustrator 22.0.0, SVG Export Plug-In . SVG Version: 6.00 Build 0)  -->
<svg version="1.1" id="Слой_1" xmlns="http://www.w3.org/2000/svg" xmlns:xlink="http://www.w3.org/1999/xlink" x="0px" y="0px"
	 width="19.16917px" height="19.16917px" viewBox="0 0 19.16917 19.16917" style="enable-background:new 0 0 19.16917 19.16917;"
	 xml:space="preserve">
<style type="text/css">
	.st0{clip-path:url(#SVGID_2_);fill:#888888;}
</style>
<g>
	<defs>
		<rect id="SVGID_1_" width="19.16917" height="19.16917"/>
	</defs>
	<clipPath id="SVGID_2_">
		<use xlink:href="#SVGID_1_"  style="overflow:visible;"/>
	</clipPath>
	<path class="st0" d="M10.35144,10.02828c-0.06215,0.09064-0.10674,0.18917-0.13432,0.29558
		c-0.02997,0.1248-0.04368,0.2519-0.0413,0.38031v0.33597H8.86428v-0.50445c-0.01346-0.39213,0.08744-0.75175,0.30264-1.07951
		c0.24516-0.34385,0.55256-0.61808,0.92204-0.82236c0.26544-0.14976,0.4914-0.34517,0.67802-0.58623
		c0.1381-0.21511,0.20239-0.45059,0.19278-0.7061c0.01133-0.32382-0.10592-0.59115-0.35215-0.802
		c-0.2716-0.21938-0.58171-0.32021-0.93025-0.3028C9.31733,6.21829,9.00057,6.32667,8.72692,6.56149
		C8.47017,6.80747,8.33774,7.10798,8.32953,7.46365L8.31237,7.59863H7.02505L7.0331,7.44526
		c0.01322-0.33006,0.08276-0.64797,0.20887-0.9534C7.36332,6.1999,7.53894,5.94504,7.76851,5.7273
		C8.00669,5.49511,8.2824,5.32302,8.5958,5.21168c0.72384-0.25682,1.45079-0.26503,2.18029-0.02529
		c0.30962,0.10509,0.58738,0.26569,0.83328,0.48146c0.23761,0.20329,0.42013,0.44796,0.54797,0.73336
		c0.12677,0.28441,0.18917,0.58229,0.18761,0.89363c0.00476,0.45125-0.10879,0.87031-0.34032,1.25719
		c-0.2317,0.38688-0.54731,0.68508-0.947,0.89396c-0.27423,0.14582-0.50864,0.33991-0.70323,0.58229H10.35144z M9.48376,14.30068
		c-0.20978,0.00427-0.38877-0.06798-0.53672-0.21676c-0.14565-0.14877-0.21856-0.32711-0.21856-0.53532
		s0.07291-0.38655,0.21856-0.535c0.14787-0.14943,0.32661-0.22201,0.53656-0.21807c0.33359,0.00361,0.56422,0.15928,0.6919,0.46734
		c0.12784,0.30839,0.07504,0.58163-0.15813,0.82006c-0.14623,0.15009-0.32423,0.22234-0.53376,0.21774H9.48376z M0.10099,9.58426
		c0,0.62268,0.06068,1.23945,0.18203,1.84999c0.1216,0.61086,0.30141,1.20398,0.53976,1.77937
		c0.23843,0.57506,0.53048,1.12188,0.87639,1.63947c0.34599,0.51759,0.73919,0.99675,1.17944,1.43716
		c0.44033,0.44008,0.91941,0.83353,1.43708,1.17935c0.51784,0.34583,1.06441,0.63812,1.63963,0.87655
		c0.57539,0.2381,1.16843,0.41808,1.77913,0.53959c0.6107,0.12152,1.22738,0.18227,1.85023,0.18227
		c0.62268,0,1.23937-0.06076,1.85007-0.18227c0.6107-0.12151,1.20374-0.30149,1.77913-0.53959
		c0.57523-0.23843,1.1218-0.53073,1.63963-0.87655c0.51767-0.34583,0.99675-0.73927,1.43708-1.17935
		c0.44025-0.44041,0.83345-0.91957,1.17944-1.43716c0.34591-0.51759,0.63804-1.06441,0.87639-1.63947
		c0.23835-0.57539,0.41816-1.16852,0.53976-1.77937c0.12135-0.61053,0.18203-1.2273,0.18203-1.84999
		S19.0075,8.3448,18.88615,7.73394c-0.1216-0.61053-0.30141-1.20366-0.53976-1.77905s-0.53048-1.12188-0.87639-1.63947
		c-0.34599-0.51792-0.73919-0.99675-1.17944-1.43716c-0.44033-0.44041-0.91941-0.83353-1.43708-1.17935
		c-0.51784-0.34615-1.06441-0.63812-1.63963-0.87655c-0.57539-0.2381-1.16843-0.41808-1.77913-0.53959
		C10.82404,0.16125,10.20735,0.1005,9.58467,0.1005c-1.25768,0-2.46741,0.24073-3.62936,0.72187
		c-1.16186,0.48146-2.18744,1.16654-3.07671,2.0559S1.30407,4.79295,0.82277,5.9549
		C0.34156,7.11684,0.10099,8.32674,0.10099,9.58426L0.10099,9.58426z"/>
</g>
</svg>
