<?xml version="1.0" encoding="utf-8"?>
<!-- Generator: Adobe Illustrator 22.1.0, SVG Export Plug-In . SVG Version: 6.00 Build 0)  -->
<svg version="1.1" id="Layer_1" xmlns="http://www.w3.org/2000/svg" xmlns:xlink="http://www.w3.org/1999/xlink" x="0px" y="0px"
	 width="51.1px" height="38px" viewBox="0 0 51.1 38" style="enable-background:new 0 0 51.1 38;" xml:space="preserve">
<style type="text/css">
	.st0{fill:#959595;}
</style>
<g>
	<path class="st0" d="M4.1,27.1c2,0.3,5.4,0,8.7-3.7l0.4-0.5l0.6,0.2c1.4,0.4,2.8,0.7,4.3,0.8c0-0.2,0-0.4,0-0.6
		c0-6.2,7.2-11.4,15.8-11.4c0.4,0,0.9,0,1.3,0C34.5,6.4,27.8,2,19.7,2C11.1,2,4.2,6.9,4.2,13c0,2.6,1.3,5.2,3.7,7.2l0.5,0.4
		l-0.3,0.9C7.8,22.6,7.1,24.5,4.1,27.1z M37.9,32.5l0.3,0.3c3,2.9,6.3,3.3,8.4,3.2c-2.4-2.2-3.1-3.6-3.6-4.9l-0.3-0.7l0.6-0.4
		c2.7-1.9,4.2-4.3,4.2-6.5c0-5.1-6.3-9.4-13.7-9.4c-7.5,0-13.8,4.3-13.8,9.4c0,5.1,6.3,9.4,13.8,9.4c1.4,0,3.6-0.2,3.6-0.2
		L37.9,32.5z M45.9,38c-2.4,0-5.6-0.6-8.7-3.4c-0.7,0.1-2.2,0.2-3.3,0.2c-7.3,0-13.7-3.8-15.3-8.8c-1.6-0.1-3.1-0.3-4.7-0.7
		C8.3,31,2.3,28.8,1.6,28.5L0,27.9l1.4-1.1c3.4-2.6,4.3-4.3,4.7-5.6C3.6,18.9,2.2,16,2.2,13C2.2,5.8,10,0,19.7,0
		c9.3,0,17,5.4,17.5,12.2c7.1,1.1,12.4,5.7,12.4,11.1c0,2.7-1.6,5.4-4.4,7.7c0.5,1,1.4,2.5,4.4,4.7l1.5,1.1l-1.8,0.6
		C49.2,37.6,47.9,38,45.9,38z"/>
</g>
</svg>
