<?xml version="1.0" encoding="utf-8"?>
<!-- Generator: Adobe Illustrator 22.1.0, SVG Export Plug-In . SVG Version: 6.00 Build 0)  -->
<svg version="1.1" id="Layer_1" xmlns="http://www.w3.org/2000/svg" xmlns:xlink="http://www.w3.org/1999/xlink" x="0px" y="0px"
	 width="44px" height="44px" viewBox="0 0 44 44" style="enable-background:new 0 0 44 44;" xml:space="preserve">
<style type="text/css">
	.st0{fill:#959595;}
</style>
<g>
	<path class="st0" d="M22,15.9c-3.5,0-6.2,2.6-6.2,6.1s2.6,6.2,6.2,6.2c3.5,0,6.1-2.6,6.1-6.2S25.5,15.9,22,15.9z M22,30.2
		c-4.6,0-8.2-3.6-8.2-8.2c0-4.6,3.6-8.1,8.2-8.1c4.6,0,8.1,3.6,8.1,8.1C30.1,26.6,26.6,30.2,22,30.2z M19,42h6v-3.6
		c0-0.5,0.3-0.9,0.8-1c1.7-0.4,2.8-0.9,4-1.7c0.4-0.2,0.9-0.2,1.2,0.2l2.6,2.6l4.5-4.5l-2.7-2.9c-0.3-0.3-0.4-0.8-0.1-1.2
		c0.8-1.3,1.3-2.7,1.7-4.2c0.1-0.5,0.5-0.8,1-0.8H42v-6h-4.1c-0.5,0-0.9-0.3-1-0.8c-0.3-1.6-0.9-2.9-1.7-4.2
		c-0.2-0.4-0.2-0.9,0.1-1.2l2.7-2.9l-4.5-4.5L31,8.1c-0.3,0.3-0.8,0.4-1.2,0.2c-1.2-0.7-2.3-1.3-4-1.7C25.3,6.4,25,6,25,5.6V2h-6
		v3.6c0,0.5-0.3,0.9-0.8,1c-1.7,0.4-2.8,1-4,1.7C13.8,8.4,13.3,8.4,13,8l-2.6-2.6L5.9,9.9l2.7,2.8c0.3,0.3,0.4,0.8,0.1,1.2
		c-0.8,1.3-1.3,2.7-1.7,4.2C7,18.7,6.6,19,6.1,19H2v6h4.1c0.5,0,0.9,0.3,1,0.8C7.4,27.3,8,28.7,8.7,30c0.2,0.4,0.2,0.9-0.1,1.2
		l-2.7,2.8l4.5,4.5L13,36c0.3-0.3,0.8-0.4,1.2-0.2c1.2,0.7,2.3,1.3,4,1.7c0.5,0.1,0.8,0.5,0.8,1L19,42L19,42z M26,44h-8
		c-0.6,0-1-0.4-1-1v-3.8c-1.2-0.4-2.2-0.8-3.1-1.3l-2.8,2.8c-0.2,0.2-0.4,0.3-0.7,0.3c-0.3,0-0.5-0.1-0.7-0.3l-5.9-5.9
		c-0.4-0.4-0.4-1,0-1.4l2.9-3c-0.6-1.1-1-2.2-1.3-3.4H1c-0.5,0-1-0.4-1-1v-8c0-0.5,0.5-1,1-1h4.3c0.3-1.2,0.8-2.3,1.3-3.4l-2.9-3
		c-0.4-0.4-0.4-1,0-1.4l5.9-5.9C9.9,3.1,10.1,3,10.4,3c0.3,0,0.5,0.1,0.7,0.3l2.8,2.8c0.9-0.5,1.9-1,3.1-1.3V1c0-0.5,0.5-1,1-1h8
		c0.6,0,1,0.5,1,1v3.8c1.2,0.4,2.2,0.8,3.1,1.3l2.8-2.8C33.1,3.1,33.3,3,33.6,3s0.5,0.1,0.7,0.3l5.9,5.9c0.4,0.4,0.4,1,0,1.4l-2.8,3
		c0.6,1.1,1,2.2,1.3,3.4H43c0.5,0,1,0.5,1,1v8c0,0.6-0.5,1-1,1h-4.3c-0.3,1.2-0.8,2.3-1.3,3.4l2.8,3c0.4,0.4,0.4,1,0,1.4l-5.9,5.9
		c-0.2,0.2-0.4,0.3-0.7,0.3s-0.5-0.1-0.7-0.3l-2.8-2.8c-0.9,0.5-1.9,1-3.1,1.3V43C27,43.6,26.6,44,26,44z"/>
</g>
</svg>
