<?xml version="1.0" encoding="utf-8"?>
<!-- Generator: Adobe Illustrator 22.1.0, SVG Export Plug-In . SVG Version: 6.00 Build 0)  -->
<svg version="1.1" id="Layer_1" xmlns="http://www.w3.org/2000/svg" xmlns:xlink="http://www.w3.org/1999/xlink" x="0px" y="0px"
	 width="42.9px" height="42.9px" viewBox="0 0 42.9 42.9" style="enable-background:new 0 0 42.9 42.9;" xml:space="preserve">
<style type="text/css">
	.st0{fill:#959595;}
</style>
<g>
	<path class="st0" d="M21.4,2C10.7,2,2,10.7,2,21.4c0,10.7,8.7,19.4,19.4,19.4c10.7,0,19.4-8.7,19.4-19.4C40.9,10.7,32.1,2,21.4,2z
		 M21.4,42.9C9.6,42.9,0,33.2,0,21.4C0,9.6,9.6,0,21.4,0c11.8,0,21.4,9.6,21.4,21.4C42.9,33.2,33.2,42.9,21.4,42.9z"/>
	<path class="st0" d="M22.3,22.3v6.8c2.4-0.1,3.7-1.3,3.7-3.3C26,24,24.9,22.9,22.3,22.3z M20.5,19.6v-6.3c-1.9,0.1-3.3,1.4-3.3,3.1
		C17.2,18.1,18.3,19.1,20.5,19.6z M20.5,33v-1.8c-3.7-0.3-6.1-2.4-6.1-5.4h2.3c0.1,1.8,1.5,3,3.8,3.3V22l-1.1-0.3
		c-2.9-0.8-4.6-2.6-4.6-5.1c0-3,2.2-5,5.6-5.4V9.3h1.8v1.9c3.4,0.3,5.6,2.4,5.7,5.3h-2.3c0-1.7-1.4-3-3.4-3.2V20l1.2,0.3
		c3.3,0.9,4.9,2.5,4.9,5.3c0,3.2-2.3,5.3-6.1,5.6V33L20.5,33L20.5,33z"/>
</g>
</svg>
