<?xml version="1.0" encoding="utf-8"?>
<!-- Generator: Adobe Illustrator 22.1.0, SVG Export Plug-In . SVG Version: 6.00 Build 0)  -->
<svg version="1.1" id="Layer_1" xmlns="http://www.w3.org/2000/svg" xmlns:xlink="http://www.w3.org/1999/xlink" x="0px" y="0px"
	 width="15px" height="15px" viewBox="0 0 15 15" style="enable-background:new 0 0 15 15;" xml:space="preserve">
<style type="text/css">
	.st0{fill:#FFFFFF;}
</style>
<g>
	<path class="st0" d="M6.1,11.1c-0.7,0-1.3-0.1-1.9-0.4c-0.6-0.2-1.1-0.6-1.6-1.1C2.2,9.2,1.8,8.6,1.6,8C1.3,7.4,1.2,6.8,1.2,6.1
		c0-2.7,2.2-4.9,4.9-4.9c2.7,0,4.9,2.2,4.9,4.9C11,8.9,8.8,11.1,6.1,11.1z M15,14L10.9,10c0.9-1.1,1.3-2.4,1.3-3.8
		C12.3,2.8,9.5,0,6.1,0C2.8,0,0,2.8,0,6.1c0,3.4,2.8,6.1,6.1,6.1c1.4,0,2.7-0.5,3.8-1.3L14,15L15,14z"/>
</g>
</svg>
