<svg xmlns="http://www.w3.org/2000/svg" width="26" height="26" viewBox="0 0 26 26">
  <metadata><?xpacket begin="﻿" id="W5M0MpCehiHzreSzNTczkc9d"?>
<x:xmpmeta xmlns:x="adobe:ns:meta/" x:xmptk="Adobe XMP Core 5.6-c142 79.160924, 2017/07/13-01:06:39        ">
   <rdf:RDF xmlns:rdf="http://www.w3.org/1999/02/22-rdf-syntax-ns#">
      <rdf:Description rdf:about=""/>
   </rdf:RDF>
</x:xmpmeta>
                                                                                                    
                                                                                                    
                                                                                                    
                                                                                                    
                                                                                                    
                                                                                                    
                                                                                                    
                                                                                                    
                                                                                                    
                                                                                                    
                                                                                                    
                                                                                                    
                                                                                                    
                                                                                                    
                                                                                                    
                                                                                                    
                                                                                                    
                                                                                                    
                                                                                                    
                                                                                                    
                           
<?xpacket end="w"?></metadata>
<defs>
    <style>
      .cls-1 {
        fill: #1e1e1e;
        fill-rule: evenodd;
      }
    </style>
  </defs>
  <path class="cls-1" d="M18.063,1.025A12.983,12.983,0,0,1,26,13,12.909,12.909,0,0,1,22.2,22.187,12.916,12.916,0,0,1,13,26a12.81,12.81,0,0,1-5.052-1.021,13.025,13.025,0,0,1-4.134-2.8A13,13,0,0,1,1.027,7.941,12.992,12.992,0,0,1,13,0,12.881,12.881,0,0,1,18.063,1.025Zm5.088,7.7a11,11,0,0,0-2.365-3.506,11.021,11.021,0,0,0-3.507-2.364,10.381,10.381,0,0,0-2.05-.626,10.84,10.84,0,0,0-4.45,0,10.353,10.353,0,0,0-2.049.626A10.968,10.968,0,0,0,6.857,3.87a11.046,11.046,0,0,0-4,4.856,10.851,10.851,0,0,0-.639,2.061,11.343,11.343,0,0,0,0,4.436,10.918,10.918,0,0,0,.639,2.049,11.179,11.179,0,0,0,1.015,1.878,10.719,10.719,0,0,0,1.35,1.634,11.289,11.289,0,0,0,1.636,1.343,10.963,10.963,0,0,0,3.921,1.653,10.843,10.843,0,0,0,4.451,0,10.942,10.942,0,0,0,3.921-1.653,11.248,11.248,0,0,0,1.635-1.343,10.6,10.6,0,0,0,1.35-1.634,11.089,11.089,0,0,0,1.015-1.878,10.842,10.842,0,0,0,.639-2.049,11.339,11.339,0,0,0,0-4.436A10.777,10.777,0,0,0,23.151,8.725ZM18.762,12.4a1.2,1.2,0,0,1,.164.607,1.235,1.235,0,0,1-.164.614,1.129,1.129,0,0,1-.456.45l-7.613,4.619a1.208,1.208,0,0,1-.632.182,1.181,1.181,0,0,1-.614-0.17A1.247,1.247,0,0,1,9,18.243a1.213,1.213,0,0,1-.164-0.614V8.367A1.213,1.213,0,0,1,9,7.753a1.2,1.2,0,0,1,.45-0.45,1.225,1.225,0,0,1,.621-0.164,1.159,1.159,0,0,1,.614.17l7.637,4.631A1.255,1.255,0,0,1,18.762,12.4Zm-2.536.6-5.4-3.269V16.28Z"/>
</svg>
