<svg xmlns="http://www.w3.org/2000/svg" xmlns:xlink="http://www.w3.org/1999/xlink" viewBox="0 0 1226.36 520.5"><defs><style>.cls-1{fill:none;clip-rule:evenodd;}.cls-2{fill:transparent;opacity:0.25;}.cls-3{clip-path:url(#clip-path);}.cls-4{opacity:0.8;font-size:43.76px;fill:#878787;font-family:SFProIcons-Regular, SF Pro Icons;}.cls-5{font-size:20px;fill:#fff;font-family:SFProText-Semibold, SF Pro Text;font-weight:700;}</style><clipPath id="clip-path" transform="translate(0)"><path class="cls-1" d="M0,23.65a21.47,21.47,0,0,1,1.63-8.22,21,21,0,0,1,2-3.71A21.57,21.57,0,0,1,9.54,5.8a21.7,21.7,0,0,1,3.71-2,22.57,22.57,0,0,1,4-1.22,21.56,21.56,0,0,1,8.37,0,22.32,22.32,0,0,1,4,1.22,21.7,21.7,0,0,1,3.71,2,21.57,21.57,0,0,1,5.92,5.92,21,21,0,0,1,2,3.71,21.53,21.53,0,0,1,1.22,12.4,21.55,21.55,0,0,1-1.22,4,21,21,0,0,1-2,3.71,21.57,21.57,0,0,1-5.92,5.92,21,21,0,0,1-3.71,2,21.47,21.47,0,0,1-8.21,1.63,21.47,21.47,0,0,1-8.22-1.63,21,21,0,0,1-3.71-2,21.57,21.57,0,0,1-5.92-5.92,21,21,0,0,1-2-3.71A21.47,21.47,0,0,1,0,23.65Z"/></clipPath></defs><title>Ресурс 4</title><g id="Слой_2" data-name="Слой 2"><g id="Layer_1" data-name="Layer 1"><path class="cls-2" d="M42.93,23.65c0,.7,0,1.4-.1,2.1a20.86,20.86,0,0,1-.31,2.08c-.14.69-.31,1.37-.51,2.05s-.44,1.33-.71,2-.57,1.29-.9,1.91a20.5,20.5,0,0,1-1.09,1.8c-.39.59-.81,1.15-1.25,1.69a22.48,22.48,0,0,1-3,3,18.9,18.9,0,0,1-1.69,1.25,20.67,20.67,0,0,1-1.81,1.09c-.62.33-1.25.63-1.9.9s-1.31.5-2,.71-1.36.37-2.05.51a20.86,20.86,0,0,1-2.08.31c-.7.07-1.4.1-2.1.1s-1.41,0-2.11-.1a20.86,20.86,0,0,1-2.08-.31c-.69-.14-1.37-.31-2.05-.51s-1.33-.44-2-.71-1.28-.57-1.9-.9a20.67,20.67,0,0,1-1.81-1.09,20.46,20.46,0,0,1-1.69-1.25,19.19,19.19,0,0,1-1.56-1.42,19.19,19.19,0,0,1-1.42-1.56c-.44-.54-.86-1.1-1.25-1.69s-.75-1.18-1.09-1.8-.63-1.26-.9-1.91-.5-1.31-.71-2S.55,28.52.41,27.83.17,26.45.1,25.75s-.1-1.4-.1-2.1,0-1.41.1-2.11.18-1.39.31-2.08.31-1.37.51-2,.44-1.34.71-2,.57-1.28.9-1.9.7-1.22,1.09-1.81S4.43,10.57,4.87,10A21,21,0,0,1,6.29,8.47,19.19,19.19,0,0,1,7.85,7.05C8.39,6.61,9,6.19,9.54,5.8a20.57,20.57,0,0,1,1.81-1.08,19.46,19.46,0,0,1,1.9-.91c.65-.26,1.31-.5,2-.71s1.36-.37,2.05-.51,1.38-.24,2.08-.31,1.4-.1,2.11-.1,1.4,0,2.1.1,1.39.18,2.08.31S27,2.9,27.7,3.1s1.33.45,2,.71a19.46,19.46,0,0,1,1.9.91A20.57,20.57,0,0,1,33.39,5.8c.59.39,1.15.81,1.69,1.25a19.19,19.19,0,0,1,1.56,1.42A21,21,0,0,1,38.06,10c.44.54.86,1.11,1.25,1.69s.76,1.19,1.09,1.81.63,1.25.9,1.9.5,1.31.71,2,.37,1.35.51,2a20.86,20.86,0,0,1,.31,2.08C42.9,22.24,42.93,22.94,42.93,23.65Z" transform="translate(0)"/><g class="cls-3"><text class="cls-4" transform="translate(7.44 38.51)"></text></g><text class="cls-5" transform="translate(1139.83 514.92)">Buy Now</text></g></g></svg>