<?xml version="1.0" encoding="utf-8"?>
<!-- Generator: Adobe Illustrator 22.1.0, SVG Export Plug-In . SVG Version: 6.00 Build 0)  -->
<svg version="1.1" id="Layer_1" xmlns="http://www.w3.org/2000/svg" xmlns:xlink="http://www.w3.org/1999/xlink" x="0px" y="0px"
	 width="165px" height="28px" viewBox="0 0 165 28" style="enable-background:new 0 0 165 28;" xml:space="preserve">
<style type="text/css">
	.st0{fill:#000000;}
</style>
<g>
	<g>
		<g>
			<path class="st0" d="M10.9,0.2c1.8,0,3.8,0.2,3.8,3.5c0,1.4-0.6,2.2-1.2,2.5c1.1,0.5,1.7,1.4,1.7,2.9c0,2.5-1.1,3.4-3.8,3.4H0
				L0,0.2H10.9z M3.8,4.9h6.7c0.6,0,0.9-0.2,0.9-0.8c0-0.6-0.4-0.8-0.9-0.8H3.8V4.9z M3.8,9.6h6.5c0.6,0,1.1-0.3,1.1-0.9
				c0-0.9-0.4-1-1.1-1H3.8V9.6z"/>
			<path class="st0" d="M21.2,0.2v9.2h8.5v3.2H17.5V0.2H21.2z"/>
			<path class="st0" d="M40.3,12.8c-7.9,0-8.1-0.4-8.1-6.4c0-5.9,0.2-6.4,8.1-6.4c7.9,0,8.1,0.5,8.1,6.4
				C48.4,12.3,48.2,12.8,40.3,12.8z M40.3,9.6c4.3,0,4.3,0,4.3-3.2c0-3.2,0-3.2-4.3-3.2c-4.3,0-4.3,0-4.3,3.2
				C36,9.6,36,9.6,40.3,9.6z"/>
			<path class="st0" d="M65.6,5h-3.8c0-1.4-0.3-1.7-3.7-1.7c-3.7,0-3.7,0.1-3.7,3.2c0,3.1,0,3.2,3.7,3.2c3.4,0,3.7-0.3,3.7-1.7h3.8
				c0,4.3-0.2,5-7.5,5c-7.1,0-7.5-0.5-7.5-6.4C50.6,0.6,51,0,58.1,0C65.3,0,65.6,0.7,65.6,5z"/>
			<path class="st0" d="M72,4.5h2l4.3-4.4h5.2l-6.1,5.9l6.9,6.5h-5.4l-4.7-4.9h-2v4.9h-3.8V0.2H72V4.5z"/>
			<path class="st0" d="M100.9,5h-3.8c0-1.4-0.3-1.7-3.7-1.7c-3.7,0-3.7,0.1-3.7,3.2c0,3.1,0,3.2,3.7,3.2c3.4,0,3.7-0.3,3.7-1.7h3.8
				c0,4.3-0.2,5-7.5,5c-7.1,0-7.5-0.5-7.5-6.4c0-5.8,0.4-6.4,7.5-6.4C100.6,0,100.9,0.7,100.9,5z"/>
			<path class="st0" d="M107.2,4.6h8.1V0.2h3.8v12.4h-3.8V7.8h-8.1v4.8h-3.8V0.2h3.8V4.6z"/>
			<path class="st0" d="M133.9,0.2l6.1,12.4h-4.4l-1.2-2.1H127l-1.2,2.1h-4.4l6.1-12.4H133.9z M130.4,3l-2,4.4h4.6L131,3H130.4z"/>
			<path class="st0" d="M145.4,12.6h-3.8V0.2h3.8V12.6z"/>
			<path class="st0" d="M164.9,12.6h-6.1l-6.4-9.2c-0.1-0.2-0.2-0.7-0.4-0.7c0,0-0.1,0-0.1,0.1c0,0.2,0.4,1,0.4,1.2v8.6h-3.8V0.2
				h6.1l6.4,9.2c0.1,0.1,0.3,0.7,0.4,0.7c0,0,0.1,0,0.1-0.1c0-0.2-0.3-1-0.3-1.2V0.2h3.8V12.6z"/>
			<path class="st0" d="M0,15.5h14.5v3.2H9.2V28H5.4v-9.2H0V15.5z"/>
			<path class="st0" d="M17.6,15.5h13.2v3h-9.4v1.7h9v3h-9V25h9.4v3H17.6V15.5z"/>
			<path class="st0" d="M44.9,15.5c2.6,0,3.8,0.8,3.8,3.6c0,2.1-0.5,3-1.7,3.5c1.3,0.6,1.7,0.9,1.7,2.5V28h-3.8v-2.2
				c0-0.5-0.3-1.3-1.2-1.3h-5.9V28H34V15.5H44.9z M37.7,21.3h6c0.8,0,1.1-0.3,1.1-1.3c0-1-0.4-1.3-1.1-1.3h-6V21.3z"/>
			<path class="st0" d="M59,15.5l3.2,7c0.1,0.2,0.1,1.5,0.3,1.5s0.2-1.3,0.3-1.5l3.2-7h6.4V28h-3.8v-8.7c0-0.4,0.2-0.7,0.2-1
				c0-0.1,0-0.1-0.1-0.1c-0.1,0-0.3,0.4-0.3,0.6L64.1,28H61l-4.7-9.2c-0.1-0.2-0.2-0.6-0.3-0.6c-0.1,0-0.1,0.1-0.1,0.1
				c0,0.2,0.2,0.6,0.2,1V28h-3.8V15.5H59z"/>
			<path class="st0" d="M79,28h-3.8V15.5H79V28z"/>
			<path class="st0" d="M98.5,28h-6.1l-6.4-9.2c-0.1-0.2-0.2-0.7-0.4-0.7c0,0-0.1,0-0.1,0.1c0,0.2,0.4,1,0.4,1.2V28H82V15.5h6.1
				l6.4,9.2c0.1,0.1,0.3,0.7,0.4,0.7c0,0,0.1,0,0.1-0.1c0-0.2-0.3-1-0.3-1.2v-8.6h3.8V28z"/>
			<path class="st0" d="M113.4,15.5l6.1,12.4h-4.4l-1.2-2.1h-7.4l-1.2,2.1h-4.4l6.1-12.4H113.4z M109.9,18.3l-2,4.4h4.6l-2-4.4
				H109.9z"/>
			<path class="st0" d="M125.3,15.5v9.2h8.5V28h-12.3V15.5H125.3z"/>
		</g>
	</g>
</g>
</svg>
