<?xml version="1.0" encoding="utf-8"?>
<!-- Generator: Adobe Illustrator 22.1.0, SVG Export Plug-In . SVG Version: 6.00 Build 0)  -->
<svg version="1.1" id="Layer_1" xmlns="http://www.w3.org/2000/svg" xmlns:xlink="http://www.w3.org/1999/xlink" x="0px" y="0px"
	 viewBox="0 0 93.5 18.9" style="enable-background:new 0 0 93.5 18.9;" xml:space="preserve">
<style type="text/css">
	.st0{fill:#FFFFFF;}
	.st1{fill:#39B54A;}
	.st2{fill:#ED1C29;}
	.st3{fill:#EDE937;}
	.st4{fill:#27AAE1;}
</style>
<g>
	<g>
		<path class="st0" d="M20.6,9.1c0.5-0.2,1-0.7,1.4-1.4c0.4-0.7,0.6-1.5,0.6-2.5c0-2.2-0.6-3.7-1.8-4.5C19.9,0.3,18.6,0,16.8,0L0,0
			l0,4.6h16c0.5,0,0.8,0.1,1.1,0.3c0.2,0.2,0.4,0.5,0.4,1c0,0.4-0.1,0.8-0.4,1C16.8,7,16.4,7.1,16,7.1H0l0,11.7h17.4
			c2.1,0,3.5-0.4,4.4-1.2c0.9-0.8,1.3-2.1,1.3-4C23.2,11.4,22.3,9.9,20.6,9.1z M15.8,14.3h-10v-3h10c0.5,0,1,0.1,1.2,0.3
			c0.3,0.2,0.4,0.6,0.4,1.2C17.4,13.8,16.9,14.3,15.8,14.3z"/>
	</g>
	<g>
		<path class="st0" d="M37.4,4.8c2.5,0,4,0.2,4.7,0.5c0.6,0.3,0.8,1,0.8,2h5.7c0-3.2-0.5-5.2-1.6-6C45.9,0.5,42.6,0,37.4,0
			c-5.3,0-8.5,0.5-9.6,1.5c-1.1,0.9-1.6,3.6-1.6,7.9c0,4.4,0.6,7,1.7,8c1.1,1,4.3,1.4,9.5,1.4c5.3,0,8.5-0.4,9.7-1.3
			c1-0.7,1.5-2.7,1.5-6H43c0,1.1-0.3,1.8-0.9,2.1c-0.6,0.3-2.2,0.4-4.7,0.4c-2.8,0-4.4-0.2-4.8-0.6c-0.5-0.4-0.7-1.8-0.7-4
			c0-2.3,0.2-3.6,0.7-4C33,5,34.7,4.8,37.4,4.8z"/>
	</g>
	<g>
		<polygon class="st0" points="69.2,0 51.7,0 51.7,4.8 57.7,4.8 57.7,18.8 63.5,18.8 63.5,4.8 69.2,4.8 		"/>
	</g>
	<g>
		<g>
			<rect x="78.6" y="17.7" class="st0" width="13.2" height="1.1"/>
		</g>
		<rect x="77.6" y="12.8" class="st1" width="14.4" height="2.3"/>
		<rect x="77.6" y="9" class="st2" width="11.8" height="2.3"/>
		<rect x="77.6" y="5.2" class="st3" width="13.4" height="2.3"/>
		<polygon class="st4" points="77.6,1.4 77.6,3.7 92.2,3.7 92.2,1.4 		"/>
		<path class="st0" d="M92.8,0l-9.6,0l-6.3,0c-0.4,0-0.7,0.3-0.7,0.7v4.1v10.9c0,0.4,0.3,0.7,0.7,0.7h15.9c0.4,0,0.7-0.3,0.7-0.7
			V0.7C93.5,0.3,93.2,0,92.8,0z M77.6,5.2H91v2.3H77.6V5.2z M77.6,9h11.8v2.3H77.6L77.6,9 M77.6,12.8H92v2.3H77.6L77.6,12.8
			 M92.2,3.7L92.2,3.7h-8.9h-5.6V1.4h5.6l8.9,0"/>
	</g>
</g>
</svg>
