<?xml version="1.0" encoding="utf-8"?><svg width="63" height="72" viewBox="0 0 63 72" xmlns="http://www.w3.org/2000/svg" xmlns:xlink="http://www.w3.org/1999/xlink"><svg width="7.063" height="13.063" viewBox="0 0 7.063 13.063" id="arrow-more" xmlns="http://www.w3.org/2000/svg"><defs><style>.acls-1{fill:#1e1e1e;fill-rule:evenodd}</style></defs><path class="acls-1" d="M4.571 6.538l-4.568-5.3L1.422.008l5.644 6.53-5.644 6.519-1.419-1.234z"/></svg><svg version="1.1" id="lock" x="8" y="14" width="14" height="17" xml:space="preserve" viewBox="0 0 14 17" xmlns="http://www.w3.org/2000/svg"><style>.bst0{fill:#fff}.bst1{fill:#71b3e2}</style><path class="bst0" d="M13 15.5c0 .3-.2.5-.5.5h-11c-.3 0-.5-.2-.5-.5v-11c0-.3.2-.5.5-.5h11c.3 0 .5.2.5.5v11zM7 1c1.2 0 2.4.8 2.7 2H4.3C4.6 1.7 5.8 1 7 1zm5.5 2h-1.8c-.3-1.9-2-3-3.7-3-1.6 0-3.4 1.1-3.7 3H1.5C.7 3 0 3.7 0 4.5v11c0 .8.7 1.5 1.5 1.5h11c.8 0 1.5-.7 1.5-1.5v-11c0-.8-.7-1.5-1.5-1.5z"/><path class="bst1" d="M10 10c0 .4-.1.8-.2 1.1-.2.4-.4.7-.7 1-.3.3-.6.5-1 .7-.3.1-.7.2-1.1.2-.4 0-.8-.1-1.1-.2-.4-.2-.7-.4-1-.7-.3-.3-.5-.6-.7-1-.1-.3-.2-.7-.2-1.1 0-.4.1-.8.2-1.1.2-.4.4-.7.7-1 .3-.3.6-.5 1-.7.3-.1.7-.2 1.1-.2.4 0 .8.1 1.1.2.4.2.7.4 1 .7.3.3.5.6.7 1 .1.3.2.7.2 1.1z"/></svg><svg version="1.1" id="search" x="22" y="31" width="15" height="15" xml:space="preserve" viewBox="0 0 15 15" xmlns="http://www.w3.org/2000/svg"><style>.cst0{fill:#fff}</style><path class="cst0" d="M6.1 11.1c-.7 0-1.3-.1-1.9-.4-.6-.2-1.1-.6-1.6-1.1-.4-.4-.8-1-1-1.6-.3-.6-.4-1.2-.4-1.9 0-2.7 2.2-4.9 4.9-4.9S11 3.4 11 6.1c0 2.8-2.2 5-4.9 5zM15 14l-4.1-4c.9-1.1 1.3-2.4 1.3-3.8C12.3 2.8 9.5 0 6.1 0 2.8 0 0 2.8 0 6.1c0 3.4 2.8 6.1 6.1 6.1 1.4 0 2.7-.5 3.8-1.3L14 15l1-1z"/></svg><svg width="26" height="26" viewBox="0 0 26 26" id="video" x="37" y="46" xmlns="http://www.w3.org/2000/svg"><defs><style>.dcls-1{fill:#1e1e1e;fill-rule:evenodd}</style></defs><path class="dcls-1" d="M18.063 1.025A12.983 12.983 0 0 1 26 13a12.909 12.909 0 0 1-3.8 9.187A12.916 12.916 0 0 1 13 26a12.81 12.81 0 0 1-5.052-1.021 13.025 13.025 0 0 1-4.134-2.8A13 13 0 0 1 1.027 7.941 12.992 12.992 0 0 1 13 0a12.881 12.881 0 0 1 5.063 1.025zm5.088 7.7a11 11 0 0 0-2.365-3.506 11.021 11.021 0 0 0-3.507-2.364 10.381 10.381 0 0 0-2.05-.626 10.84 10.84 0 0 0-4.45 0 10.353 10.353 0 0 0-2.049.626A10.968 10.968 0 0 0 6.857 3.87a11.046 11.046 0 0 0-4 4.856 10.851 10.851 0 0 0-.639 2.061 11.343 11.343 0 0 0 0 4.436 10.918 10.918 0 0 0 .639 2.049 11.179 11.179 0 0 0 1.015 1.878 10.719 10.719 0 0 0 1.35 1.634 11.289 11.289 0 0 0 1.636 1.343 10.963 10.963 0 0 0 3.921 1.653 10.843 10.843 0 0 0 4.451 0 10.942 10.942 0 0 0 3.921-1.653 11.248 11.248 0 0 0 1.635-1.343 10.6 10.6 0 0 0 1.35-1.634 11.089 11.089 0 0 0 1.015-1.878 10.842 10.842 0 0 0 .639-2.049 11.339 11.339 0 0 0 0-4.436 10.777 10.777 0 0 0-.639-2.062zM18.762 12.4a1.2 1.2 0 0 1 .164.607 1.235 1.235 0 0 1-.164.614 1.129 1.129 0 0 1-.456.45l-7.613 4.619a1.208 1.208 0 0 1-.632.182 1.181 1.181 0 0 1-.614-.17A1.247 1.247 0 0 1 9 18.243a1.213 1.213 0 0 1-.164-.614V8.367A1.213 1.213 0 0 1 9 7.753a1.2 1.2 0 0 1 .45-.45 1.225 1.225 0 0 1 .621-.164 1.159 1.159 0 0 1 .614.17l7.637 4.631a1.255 1.255 0 0 1 .44.46zm-2.536.6l-5.4-3.269v6.549z"/></svg></svg>