<?xml version="1.0" encoding="utf-8"?><svg xmlns="http://www.w3.org/2000/svg" xmlns:xlink="http://www.w3.org/1999/xlink"><symbol id="lock" xml:space="preserve" viewBox="0 0 14 17" xmlns="http://www.w3.org/2000/svg"><style>.ast0{fill:#fff}.ast1{fill:#71b3e2}</style><path class="ast0" d="M13 15.5c0 .3-.2.5-.5.5h-11c-.3 0-.5-.2-.5-.5v-11c0-.3.2-.5.5-.5h11c.3 0 .5.2.5.5v11zM7 1c1.2 0 2.4.8 2.7 2H4.3C4.6 1.7 5.8 1 7 1zm5.5 2h-1.8c-.3-1.9-2-3-3.7-3-1.6 0-3.4 1.1-3.7 3H1.5C.7 3 0 3.7 0 4.5v11c0 .8.7 1.5 1.5 1.5h11c.8 0 1.5-.7 1.5-1.5v-11c0-.8-.7-1.5-1.5-1.5z"/><path class="ast1" d="M10 10c0 .4-.1.8-.2 1.1-.2.4-.4.7-.7 1-.3.3-.6.5-1 .7-.3.1-.7.2-1.1.2-.4 0-.8-.1-1.1-.2-.4-.2-.7-.4-1-.7-.3-.3-.5-.6-.7-1-.1-.3-.2-.7-.2-1.1 0-.4.1-.8.2-1.1.2-.4.4-.7.7-1 .3-.3.6-.5 1-.7.3-.1.7-.2 1.1-.2.4 0 .8.1 1.1.2.4.2.7.4 1 .7.3.3.5.6.7 1 .1.3.2.7.2 1.1z"/></symbol><symbol id="search" xml:space="preserve" viewBox="0 0 15 15" xmlns="http://www.w3.org/2000/svg"><style>.bst0{fill:#fff}</style><path class="bst0" d="M6.1 11.1c-.7 0-1.3-.1-1.9-.4-.6-.2-1.1-.6-1.6-1.1-.4-.4-.8-1-1-1.6-.3-.6-.4-1.2-.4-1.9 0-2.7 2.2-4.9 4.9-4.9S11 3.4 11 6.1c0 2.8-2.2 5-4.9 5zM15 14l-4.1-4c.9-1.1 1.3-2.4 1.3-3.8C12.3 2.8 9.5 0 6.1 0 2.8 0 0 2.8 0 6.1c0 3.4 2.8 6.1 6.1 6.1 1.4 0 2.7-.5 3.8-1.3L14 15l1-1z"/></symbol></svg>