<?xml version="1.0" encoding="utf-8"?><svg xmlns="http://www.w3.org/2000/svg" xmlns:xlink="http://www.w3.org/1999/xlink"><symbol viewBox="0 0 7.063 13.063" id="arrow-more" xmlns="http://www.w3.org/2000/svg"><defs><style>.acls-1{fill:#1e1e1e;fill-rule:evenodd}</style></defs><path class="acls-1" d="M4.571 6.538l-4.568-5.3L1.422.008l5.644 6.53-5.644 6.519-1.419-1.234z"/></symbol><symbol viewBox="0 0 17.549 17.549" id="bag_icon-1" xmlns="http://www.w3.org/2000/svg"><path d="M6.229 12.573a.343.343 0 0 0-.076-.012 2.19 2.19 0 0 0 .607-1.515V9.243a.347.347 0 0 0-.004-.048 1.42 1.42 0 0 0 .004-.099v-1.14a.343.343 0 0 0-.343-.343h-2.3c-.967 0-1.755.787-1.755 1.755v1.678c0 .587.231 1.12.607 1.515a.342.342 0 0 0-.076.012A3.187 3.187 0 0 0 0 15.743v1.464c0 .189.153.342.343.342h8.436c.19 0 .343-.153.343-.342v-1.465a3.187 3.187 0 0 0-2.893-3.17zM3.048 10.51h2.297c.267 0 .516-.074.73-.202v.738c0 .835-.68 1.514-1.514 1.514s-1.513-.68-1.513-1.514v-.536zm2.259 2.735l-.746.746-.746-.746h1.492zm-2.26-3.877c0-.59.48-1.07 1.07-1.07h1.957v.798a.73.73 0 0 1-.729.729H3.048v-.457zm5.39 7.496H.685v-.686h1.422a.343.343 0 1 0 0-.685H.698a2.501 2.501 0 0 1 2.168-2.227l1.453 1.452a.343.343 0 0 0 .484 0l1.453-1.452a2.5 2.5 0 0 1 2.18 2.476v1.122zM14.656 4.96a.343.343 0 0 0-.076-.012 2.19 2.19 0 0 0 .607-1.514V1.63a.347.347 0 0 0-.004-.049 1.42 1.42 0 0 0 .004-.098V.343A.343.343 0 0 0 14.844 0h-2.299c-.968 0-1.755.788-1.755 1.756v1.678c0 .586.23 1.12.606 1.514a.343.343 0 0 0-.075.012 3.187 3.187 0 0 0-2.893 3.17v1.464c0 .19.153.343.342.343h2.758a.343.343 0 1 0 0-.686H9.113V8.13a2.5 2.5 0 0 1 2.18-2.477l1.453 1.453a.342.342 0 0 0 .485 0l1.452-1.453a2.5 2.5 0 0 1 2.18 2.477V9.25H14.34a.343.343 0 1 0 0 .686h2.868c.189 0 .342-.154.342-.343V8.13a3.187 3.187 0 0 0-2.893-3.17zm-3.18-1.526v-.536h2.297c.266 0 .516-.074.729-.203v.739c0 .834-.68 1.513-1.514 1.513a1.515 1.515 0 0 1-1.513-1.513zm0-1.678c0-.59.48-1.07 1.07-1.07h1.956v.798a.73.73 0 0 1-.73.728h-2.297v-.456zm1.512 4.623l-.746-.746h1.492l-.746.746z"/><path d="M13.23 9.836a.345.345 0 0 0 0-.484.345.345 0 0 0-.484 0 .344.344 0 0 0 .243.585c.09 0 .178-.037.242-.1zM1.714 6.444h4.304c.709 0 1.327-.425 1.586-1.063h1.32a.343.343 0 0 0 .242-.585L7.732 3.363v-1.65C7.732.77 6.963 0 6.018 0H1.714C.769 0 0 .769 0 1.714V4.73c0 .945.769 1.714 1.714 1.714zM.686 1.714A1.03 1.03 0 0 1 1.714.686h4.304a1.03 1.03 0 0 1 1.029 1.028v1.79c0 .092.036.179.1.243l.949.949h-.742c-.16 0-.298.11-.334.266-.108.469-.52.796-1.002.796H1.714A1.03 1.03 0 0 1 .686 4.73V1.714zM15.836 11.105H11.53c-.709 0-1.327.426-1.586 1.063H8.626a.343.343 0 0 0-.242.585l1.433 1.434v1.649c0 .945.769 1.713 1.714 1.713h4.305c.945 0 1.713-.768 1.713-1.713v-3.017c0-.945-.768-1.714-1.713-1.714zm1.028 4.73a1.03 1.03 0 0 1-1.028 1.029H11.53a1.03 1.03 0 0 1-1.028-1.028v-1.791a.343.343 0 0 0-.1-.243l-.95-.948h.742c.16 0 .299-.11.334-.266.108-.47.52-.797 1.002-.797h4.305a1.03 1.03 0 0 1 1.028 1.028v3.017z"/><path d="M14.74 13.415l-.912.912-.424-.424a.343.343 0 0 0-.484.485l.666.666a.342.342 0 0 0 .484 0l1.154-1.154a.343.343 0 0 0-.485-.485zM3.393 2.698c.19 0 .343-.154.343-.343 0-.14.057-.272.16-.368a.503.503 0 1 1 .454.858.576.576 0 0 0-.454.565v.183a.343.343 0 1 0 .686 0v-.1c.53-.158.881-.659.842-1.222A1.191 1.191 0 0 0 4.322 1.17 1.193 1.193 0 0 0 3.05 2.355c0 .19.154.343.343.343zM4.239 4.562a.345.345 0 0 0-.343.343.344.344 0 0 0 .585.242.345.345 0 0 0 0-.485.345.345 0 0 0-.242-.1zM3.479 15.493a.345.345 0 0 0-.343.343.345.345 0 0 0 .343.342.345.345 0 0 0 .343-.342.345.345 0 0 0-.343-.343z"/></symbol><symbol id="bag_icon-2" xml:space="preserve" viewBox="0 0 16.142 17.545" xmlns="http://www.w3.org/2000/svg"><style>.cst0{fill:#333}</style><path class="cst0" d="M8.576 16.112V8.89l6.558-3.633v7.214l-6.558 3.642zM1.009 5.267l6.558 3.632v7.223L1.009 12.48V5.267zm9.645-2.825l-6.255 3.54L1.584 4.43 8.071 1.14l2.583 1.302zM8.07 8.02L5.428 6.558l6.306-3.562 2.825 1.433L8.07 8.021zm0-8.021L0 4.096v8.98l8.071 4.469 8.071-4.47V4.096L8.072 0z"/></symbol><symbol id="bag_icon-3" xml:space="preserve" viewBox="0 0 19.169 19.169" xmlns="http://www.w3.org/2000/svg"><style>.dst0{clip-path:url(#dSVGID_2_);fill:#888}</style><defs><path id="dSVGID_1_" d="M0 0h19.169v19.169H0z"/></defs><clipPath id="dSVGID_2_"><use xlink:href="#dSVGID_1_" overflow="visible"/></clipPath><path class="dst0" d="M10.351 10.028a.932.932 0 0 0-.134.296c-.03.125-.044.252-.041.38v.336H8.864v-.504a1.808 1.808 0 0 1 .303-1.08c.245-.344.552-.618.922-.822.265-.15.491-.345.678-.586.138-.216.202-.451.193-.707a.962.962 0 0 0-.352-.802 1.328 1.328 0 0 0-.93-.302c-.36-.019-.677.09-.951.324-.257.246-.39.547-.397.903l-.018.135H7.025l.008-.154a2.77 2.77 0 0 1 .209-.953c.121-.292.297-.547.527-.765.238-.232.513-.404.827-.515a3.284 3.284 0 0 1 2.18-.026c.31.105.587.266.833.482.238.203.42.448.548.733.127.285.19.583.188.894.005.451-.109.87-.34 1.257a2.356 2.356 0 0 1-.947.894c-.275.146-.509.34-.704.582h-.003zm-.867 4.273a.708.708 0 0 1-.537-.217c-.146-.149-.219-.327-.219-.535s.073-.387.219-.535a.707.707 0 0 1 .537-.218c.333.003.564.159.691.467.128.308.076.581-.158.82a.694.694 0 0 1-.533.218zM.1 9.584a9.468 9.468 0 0 0 1.598 5.27 9.48 9.48 0 0 0 11.515 3.492 9.485 9.485 0 0 0 0-17.524 9.48 9.48 0 0 0-7.259 0C4.793 1.304 3.768 1.99 2.88 2.878S1.304 4.793.823 5.955A9.396 9.396 0 0 0 .1 9.585z"/></symbol><symbol id="chat" xml:space="preserve" viewBox="0 0 51.1 38" xmlns="http://www.w3.org/2000/svg"><style>.est0{fill:#959595}</style><path class="est0" d="M4.1 27.1c2 .3 5.4 0 8.7-3.7l.4-.5.6.2c1.4.4 2.8.7 4.3.8v-.6c0-6.2 7.2-11.4 15.8-11.4h1.3C34.5 6.4 27.8 2 19.7 2 11.1 2 4.2 6.9 4.2 13c0 2.6 1.3 5.2 3.7 7.2l.5.4-.3.9c-.3 1.1-1 3-4 5.6zm33.8 5.4l.3.3c3 2.9 6.3 3.3 8.4 3.2-2.4-2.2-3.1-3.6-3.6-4.9l-.3-.7.6-.4c2.7-1.9 4.2-4.3 4.2-6.5 0-5.1-6.3-9.4-13.7-9.4-7.5 0-13.8 4.3-13.8 9.4 0 5.1 6.3 9.4 13.8 9.4 1.4 0 3.6-.2 3.6-.2l.5-.2zm8 5.5c-2.4 0-5.6-.6-8.7-3.4-.7.1-2.2.2-3.3.2-7.3 0-13.7-3.8-15.3-8.8-1.6-.1-3.1-.3-4.7-.7C8.3 31 2.3 28.8 1.6 28.5L0 27.9l1.4-1.1c3.4-2.6 4.3-4.3 4.7-5.6C3.6 18.9 2.2 16 2.2 13 2.2 5.8 10 0 19.7 0c9.3 0 17 5.4 17.5 12.2 7.1 1.1 12.4 5.7 12.4 11.1 0 2.7-1.6 5.4-4.4 7.7.5 1 1.4 2.5 4.4 4.7l1.5 1.1-1.8.6c-.1.2-1.4.6-3.4.6z"/></symbol><symbol id="delivery" xml:space="preserve" viewBox="0 0 39.9 43.6" xmlns="http://www.w3.org/2000/svg"><style>.fst0{fill:#959595}</style><path class="fst0" d="M3.1 10.8l7.6 4.2L27 5.8l-7-3.6-16.9 8.6zm9.7 5.4l7.2 4 16.8-9.4-7.7-3.9-16.3 9.3zm8.2 5.7v18.8l17-9.4V12.5l-17 9.4zM2 31.3l17 9.4V21.9L2 12.5v18.8zm18 12.3L0 32.5V10.2L20 0l20 10.2v22.3L20 43.6z"/></symbol><symbol id="gear" xml:space="preserve" viewBox="0 0 44 44" xmlns="http://www.w3.org/2000/svg"><style>.gst0{fill:#959595}</style><path class="gst0" d="M22 15.9c-3.5 0-6.2 2.6-6.2 6.1s2.6 6.2 6.2 6.2c3.5 0 6.1-2.6 6.1-6.2s-2.6-6.1-6.1-6.1zm0 14.3c-4.6 0-8.2-3.6-8.2-8.2s3.6-8.1 8.2-8.1 8.1 3.6 8.1 8.1c0 4.6-3.5 8.2-8.1 8.2zM19 42h6v-3.6c0-.5.3-.9.8-1 1.7-.4 2.8-.9 4-1.7.4-.2.9-.2 1.2.2l2.6 2.6 4.5-4.5-2.7-2.9c-.3-.3-.4-.8-.1-1.2.8-1.3 1.3-2.7 1.7-4.2.1-.5.5-.8 1-.8h4v-6h-4.1c-.5 0-.9-.3-1-.8-.3-1.6-.9-2.9-1.7-4.2-.2-.4-.2-.9.1-1.2L38 9.8l-4.5-4.5L31 8.1c-.3.3-.8.4-1.2.2-1.2-.7-2.3-1.3-4-1.7-.5-.2-.8-.6-.8-1V2h-6v3.6c0 .5-.3.9-.8 1-1.7.4-2.8 1-4 1.7-.4.1-.9.1-1.2-.3l-2.6-2.6-4.5 4.5 2.7 2.8c.3.3.4.8.1 1.2-.8 1.3-1.3 2.7-1.7 4.2 0 .6-.4.9-.9.9H2v6h4.1c.5 0 .9.3 1 .8.3 1.5.9 2.9 1.6 4.2.2.4.2.9-.1 1.2L5.9 34l4.5 4.5L13 36c.3-.3.8-.4 1.2-.2 1.2.7 2.3 1.3 4 1.7.5.1.8.5.8 1V42zm7 2h-8c-.6 0-1-.4-1-1v-3.8c-1.2-.4-2.2-.8-3.1-1.3l-2.8 2.8c-.2.2-.4.3-.7.3-.3 0-.5-.1-.7-.3l-5.9-5.9c-.4-.4-.4-1 0-1.4l2.9-3c-.6-1.1-1-2.2-1.3-3.4H1c-.5 0-1-.4-1-1v-8c0-.5.5-1 1-1h4.3c.3-1.2.8-2.3 1.3-3.4l-2.9-3c-.4-.4-.4-1 0-1.4l5.9-5.9c.3-.2.5-.3.8-.3.3 0 .5.1.7.3l2.8 2.8c.9-.5 1.9-1 3.1-1.3V1c0-.5.5-1 1-1h8c.6 0 1 .5 1 1v3.8c1.2.4 2.2.8 3.1 1.3l2.8-2.8c.2-.2.4-.3.7-.3s.5.1.7.3l5.9 5.9c.4.4.4 1 0 1.4l-2.8 3c.6 1.1 1 2.2 1.3 3.4H43c.5 0 1 .5 1 1v8c0 .6-.5 1-1 1h-4.3c-.3 1.2-.8 2.3-1.3 3.4l2.8 3c.4.4.4 1 0 1.4l-5.9 5.9c-.2.2-.4.3-.7.3s-.5-.1-.7-.3l-2.8-2.8c-.9.5-1.9 1-3.1 1.3V43c0 .6-.4 1-1 1z"/></symbol><symbol id="lock" xml:space="preserve" viewBox="0 0 14 17" xmlns="http://www.w3.org/2000/svg"><style>.hst0{fill:#fff}.hst1{fill:#71b3e2}</style><path class="hst0" d="M13 15.5c0 .3-.2.5-.5.5h-11c-.3 0-.5-.2-.5-.5v-11c0-.3.2-.5.5-.5h11c.3 0 .5.2.5.5v11zM7 1c1.2 0 2.4.8 2.7 2H4.3C4.6 1.7 5.8 1 7 1zm5.5 2h-1.8c-.3-1.9-2-3-3.7-3-1.6 0-3.4 1.1-3.7 3H1.5C.7 3 0 3.7 0 4.5v11c0 .8.7 1.5 1.5 1.5h11c.8 0 1.5-.7 1.5-1.5v-11c0-.8-.7-1.5-1.5-1.5z"/><path class="hst1" d="M10 10c0 .4-.1.8-.2 1.1-.2.4-.4.7-.7 1-.3.3-.6.5-1 .7-.3.1-.7.2-1.1.2-.4 0-.8-.1-1.1-.2-.4-.2-.7-.4-1-.7-.3-.3-.5-.6-.7-1-.1-.3-.2-.7-.2-1.1 0-.4.1-.8.2-1.1.2-.4.4-.7.7-1 .3-.3.6-.5 1-.7.3-.1.7-.2 1.1-.2.4 0 .8.1 1.1.2.4.2.7.4 1 .7.3.3.5.6.7 1 .1.3.2.7.2 1.1z"/></symbol><symbol id="question" xml:space="preserve" viewBox="0 0 42.9 42.9" xmlns="http://www.w3.org/2000/svg"><style>.ist0{fill:#959595}</style><path class="ist0" d="M21.4 2C10.7 2 2 10.7 2 21.4s8.7 19.4 19.4 19.4 19.4-8.7 19.4-19.4C40.9 10.7 32.1 2 21.4 2zm0 40.9C9.6 42.9 0 33.2 0 21.4S9.6 0 21.4 0c11.8 0 21.4 9.6 21.4 21.4.1 11.8-9.6 21.5-21.4 21.5z"/><path class="ist0" d="M22.3 22.3v6.8c2.4-.1 3.7-1.3 3.7-3.3 0-1.8-1.1-2.9-3.7-3.5zm-1.8-2.7v-6.3c-1.9.1-3.3 1.4-3.3 3.1 0 1.7 1.1 2.7 3.3 3.2zm0 13.4v-1.8c-3.7-.3-6.1-2.4-6.1-5.4h2.3c.1 1.8 1.5 3 3.8 3.3V22l-1.1-.3c-2.9-.8-4.6-2.6-4.6-5.1 0-3 2.2-5 5.6-5.4V9.3h1.8v1.9c3.4.3 5.6 2.4 5.7 5.3h-2.3c0-1.7-1.4-3-3.4-3.2V20l1.2.3c3.3.9 4.9 2.5 4.9 5.3 0 3.2-2.3 5.3-6.1 5.6V33h-1.7z"/></symbol><symbol id="search" xml:space="preserve" viewBox="0 0 15 15" xmlns="http://www.w3.org/2000/svg"><style>.jst0{fill:#fff}</style><path class="jst0" d="M6.1 11.1c-.7 0-1.3-.1-1.9-.4-.6-.2-1.1-.6-1.6-1.1-.4-.4-.8-1-1-1.6-.3-.6-.4-1.2-.4-1.9 0-2.7 2.2-4.9 4.9-4.9S11 3.4 11 6.1c0 2.8-2.2 5-4.9 5zM15 14l-4.1-4c.9-1.1 1.3-2.4 1.3-3.8C12.3 2.8 9.5 0 6.1 0 2.8 0 0 2.8 0 6.1c0 3.4 2.8 6.1 6.1 6.1 1.4 0 2.7-.5 3.8-1.3L14 15l1-1z"/></symbol><symbol viewBox="0 0 26 26" id="video" xmlns="http://www.w3.org/2000/svg"><defs><style>.kcls-1{fill:#1e1e1e;fill-rule:evenodd}</style></defs><path class="kcls-1" d="M18.063 1.025A12.983 12.983 0 0 1 26 13a12.909 12.909 0 0 1-3.8 9.187A12.916 12.916 0 0 1 13 26a12.81 12.81 0 0 1-5.052-1.021 13.025 13.025 0 0 1-4.134-2.8A13 13 0 0 1 1.027 7.941 12.992 12.992 0 0 1 13 0a12.881 12.881 0 0 1 5.063 1.025zm5.088 7.7a11 11 0 0 0-2.365-3.506 11.021 11.021 0 0 0-3.507-2.364 10.381 10.381 0 0 0-2.05-.626 10.84 10.84 0 0 0-4.45 0 10.353 10.353 0 0 0-2.049.626A10.968 10.968 0 0 0 6.857 3.87a11.046 11.046 0 0 0-4 4.856 10.851 10.851 0 0 0-.639 2.061 11.343 11.343 0 0 0 0 4.436 10.918 10.918 0 0 0 .639 2.049 11.179 11.179 0 0 0 1.015 1.878 10.719 10.719 0 0 0 1.35 1.634 11.289 11.289 0 0 0 1.636 1.343 10.963 10.963 0 0 0 3.921 1.653 10.843 10.843 0 0 0 4.451 0 10.942 10.942 0 0 0 3.921-1.653 11.248 11.248 0 0 0 1.635-1.343 10.6 10.6 0 0 0 1.35-1.634 11.089 11.089 0 0 0 1.015-1.878 10.842 10.842 0 0 0 .639-2.049 11.339 11.339 0 0 0 0-4.436 10.777 10.777 0 0 0-.639-2.062zM18.762 12.4a1.2 1.2 0 0 1 .164.607 1.235 1.235 0 0 1-.164.614 1.129 1.129 0 0 1-.456.45l-7.613 4.619a1.208 1.208 0 0 1-.632.182 1.181 1.181 0 0 1-.614-.17A1.247 1.247 0 0 1 9 18.243a1.213 1.213 0 0 1-.164-.614V8.367A1.213 1.213 0 0 1 9 7.753a1.2 1.2 0 0 1 .45-.45 1.225 1.225 0 0 1 .621-.164 1.159 1.159 0 0 1 .614.17l7.637 4.631a1.255 1.255 0 0 1 .44.46zm-2.536.6l-5.4-3.269v6.549z"/></symbol></svg>